<?xml version="1.0" standalone="no"?>
<!DOCTYPE svg PUBLIC "-//W3C//DTD SVG 20010904//EN"
 "http://www.w3.org/TR/2001/REC-SVG-20010904/DTD/svg10.dtd">
<svg version="1.0" xmlns="http://www.w3.org/2000/svg"
 width="296.000000pt" height="228.000000pt" viewBox="0 0 296.000000 228.000000"
 preserveAspectRatio="xMidYMid meet">
<metadata>
Created by potrace 1.16, written by Peter Selinger 2001-2019
</metadata>
<g transform="translate(0.000000,228.000000) scale(0.100000,-0.100000)"
fill="#000000" stroke="none">
<path d="M1352 1847 c-12 -13 -22 -35 -22 -48 0 -19 -9 -30 -36 -42 -32 -16
-37 -16 -57 -2 -31 21 -89 19 -120 -5 -23 -18 -31 -19 -71 -9 -34 8 -46 17
-51 36 -17 70 -115 98 -168 49 -33 -30 -43 -71 -29 -110 11 -27 8 -34 -21 -72
-27 -37 -37 -43 -68 -44 -56 0 -89 -32 -89 -85 0 -35 5 -48 26 -64 35 -28 77
-26 111 3 24 21 28 31 27 73 -2 42 3 55 30 87 27 33 37 38 78 40 34 1 54 8 72
26 24 21 29 22 66 11 24 -7 40 -18 40 -27 0 -31 32 -76 65 -90 28 -11 34 -20
40 -54 5 -32 3 -46 -11 -61 -34 -38 -10 -119 36 -119 11 0 21 -14 29 -40 11
-36 10 -43 -9 -67 -26 -33 -26 -73 1 -107 44 -56 149 -19 149 52 0 35 -34 82
-60 82 -34 0 -68 77 -45 101 26 26 28 63 5 92 -12 15 -27 27 -34 27 -8 0 -16
18 -20 42 -6 38 -4 43 29 70 29 24 35 36 35 68 0 32 5 41 32 58 23 15 37 18
49 11 77 -41 159 63 97 121 -30 27 -79 26 -106 -3z"/>
<path d="M1580 960 l0 -570 173 0 c297 1 420 39 551 173 113 115 166 245 166
407 0 100 -18 180 -61 267 -32 67 -110 159 -172 204 l-38 28 -82 -66 c-45 -36
-84 -67 -85 -69 -2 -1 15 -12 38 -24 110 -56 188 -179 197 -310 12 -165 -64
-298 -211 -370 -57 -28 -78 -33 -170 -37 l-106 -6 0 184 c0 101 -3 262 -6 358
-3 96 -3 202 1 236 6 58 8 62 48 88 23 14 56 38 72 51 l30 25 -172 1 -173 0 0
-570z"/>
<path d="M704 1351 c-45 -27 -60 -77 -40 -126 16 -36 15 -39 -15 -96 -29 -54
-35 -59 -65 -59 -23 0 -44 -9 -66 -29 -28 -25 -33 -36 -33 -76 0 -40 5 -51 33
-76 23 -21 43 -29 70 -29 33 0 40 -5 69 -50 32 -48 32 -50 17 -86 -19 -45 -12
-78 26 -115 35 -36 94 -40 133 -9 22 18 29 19 47 8 11 -7 20 -22 20 -34 0 -41
60 -63 95 -34 42 35 0 108 -55 96 -43 -8 -70 11 -70 52 0 18 -6 41 -12 53 -11
17 -9 27 13 67 22 40 32 48 63 53 20 3 50 18 66 34 34 32 70 29 107 -11 42
-46 113 -22 113 39 0 54 -68 80 -111 41 -17 -15 -57 -18 -74 -6 -6 4 -16 19
-22 34 -15 34 -67 62 -100 53 -41 -10 -73 -50 -73 -90 0 -19 5 -43 11 -53 10
-15 7 -28 -16 -65 -24 -42 -31 -47 -63 -47 -33 0 -41 5 -71 50 -30 44 -33 53
-23 76 16 33 15 73 -2 104 -13 22 -11 30 17 82 27 49 36 58 60 58 111 0 148
149 50 199 -32 16 -64 14 -99 -8z"/>
<path d="M1388 859 c-11 -6 -18 -22 -18 -41 0 -18 -9 -41 -21 -54 -18 -20 -28
-22 -75 -17 -47 5 -58 3 -78 -17 -36 -33 -40 -65 -16 -116 29 -58 24 -74 -28
-92 -44 -14 -82 -58 -82 -93 0 -10 -17 -23 -45 -33 -44 -17 -46 -17 -71 3 -60
47 -154 4 -154 -71 0 -106 144 -129 183 -29 13 30 23 40 56 50 38 11 44 10 68
-9 32 -25 94 -26 134 -3 27 16 32 16 57 3 17 -10 28 -26 30 -43 4 -32 45 -67
79 -67 34 0 73 42 73 79 0 54 -72 92 -119 62 -9 -6 -26 -3 -48 7 -27 13 -33
21 -33 48 0 20 -9 44 -24 61 -20 23 -22 32 -14 55 6 18 17 28 30 28 11 0 33
13 50 30 24 25 29 37 27 70 -4 50 28 89 74 88 53 -2 75 54 37 92 -22 22 -46
25 -72 9z"/>
</g>
</svg> 